<?xml version="1.0" encoding="utf-8"?>
<!-- Generator: Adobe Illustrator 22.0.1, SVG Export Plug-In . SVG Version: 6.00 Build 0)  -->
<svg version="1.1" id="Layer_1" xmlns="http://www.w3.org/2000/svg" xmlns:xlink="http://www.w3.org/1999/xlink" x="0px" y="0px"
	 viewBox="0 0 139.3 110.5" style="enable-background:new 0 0 139.3 110.5;" xml:space="preserve">
<style type="text/css">
	.st0{fill:none;stroke:#00BDD6;stroke-width:8;stroke-linecap:round;stroke-miterlimit:10;}
	.st1{fill:#00BDD6;}
	.st2{fill:none;}
	.st3{fill:#FF6F00;}
</style>
<g>
	<g>
		<path class="st0" d="M158.7,13c1.6-0.4,32.4-7.2,50,14c15.4,18.5,20,42,5,59c-9.3,10.5-27.7,14-40,1c-7.3-7.6-6.2-22.2-1-30
			c10-15,31.8-17.6,55-20c19-2,19-2,50-1"/>
		<g>
			<polygon class="st1" points="250.1,67.8 244.9,61.8 274.6,35.9 246.6,8.1 252.2,2.5 286.3,36.3 			"/>
		</g>
	</g>
</g>
<g>
	<g>
		<path class="st0" d="M21.7,11.8c1.6-0.4,31.1-7.1,50.4,12.6c18.3,18.7,19.6,53.3,0,70c-14.8,12.6-40.6,14.4-55.3,0.7
			c-6.6-6.1-8.4-18.2-5.2-29c4.2-14.5,18.9-19.6,41.7-24.8c16.2-3.7,43.4-7.4,73.4-5.2"/>
		<g>
			<polygon class="st1" points="97.9,66.7 92.8,60.5 123.6,35.8 96.7,6.9 102.6,1.5 135.3,36.6 			"/>
		</g>
	</g>
</g>
<path id="SVGID_x5F_1_x5F_" class="st2" d="M27.1,23.3c1.6-0.4,31.1-7.1,50.4,12.6c18.3,18.7,19.6,53.3,0,70
	c-14.8,12.6-40.6,14.4-55.3,0.7c-6.6-6.1-8.4-18.2-5.2-29.1C21.1,63.1,35.9,58,58.6,52.7c16.2-3.7,40-7.8,70-5.6"/>
<text><textPath  xlink:href="#SVGID_x5F_1_x5F_" startOffset="68.3268%">
<tspan  style="opacity:0.98;fill:#FF6F00; font-family:'Arial-BoldMT'; font-size:10px;">PORTFOLIO</tspan></textPath>
</text>
<path id="SVGID_x5F_2_x5F_" class="st2" d="M162.7,25c1.6-0.4,32.4-7.2,50,14c15.4,18.5,20,42,5,59c-9.3,10.5-27.7,14-40,1
	c-7.3-7.6-6.2-22.2-1-30c10-15,31.8-17.6,55-20c19-2,19-2,50-1"/>
<text><textPath  xlink:href="#SVGID_x5F_2_x5F_" startOffset="79.1667%">
<tspan  class="st3" style="font-family:'Arial-BoldMT'; font-size:10px;">PORTFOLIO</tspan></textPath>
</text>
</svg>
