<?xml version="1.0" encoding="utf-8"?>
<!-- Generator: Adobe Illustrator 22.0.1, SVG Export Plug-In . SVG Version: 6.00 Build 0)  -->
<svg version="1.1" id="Layer_1" xmlns="http://www.w3.org/2000/svg" xmlns:xlink="http://www.w3.org/1999/xlink" x="0px" y="0px"
	 viewBox="0 0 1881.7 1506.9" style="enable-background:new 0 0 1881.7 1506.9;" xml:space="preserve">
<style type="text/css">
	.st0{fill:#4DA853;stroke:#4DA853;}
	.st1{fill:#E0CC51;stroke:#E0CC51;}
	.st2{fill:#273A30;stroke:#273A30;}
</style>
<path class="st0" d="M1128.3,85.7c35.1-40.2,87.7-62,140.3-65.7c14.9-0.2,29.8,2.5,44.6,4.2c40.9,3.3,77.8,25.2,108.4,51.3
	c24.5,25.9,45.8,56,56.2,90.5c12,38.8,7.8,80-1.5,118.9c-9,28.4-26.5,53-42.7,77.5c10.9,25.6,27,48.5,38.7,73.7
	c13.5,25.4,19.5,53.9,31.5,79.9c1.3,3.9,6.4,4.9,8.6,1.1c36-34.7,73.9-68.5,118.3-92.2c40-22.9,86.4-41.2,133.3-33
	c33.4,4.8,62.5,24.7,84.5,49.5c10.9,12.5,13,29.7,14.5,45.5c6,69.7-8.8,139.5-31.5,205.1c-20.8,65.2-50.4,127.3-83,187.3
	c-32.2,57.1-65.9,113.5-104.1,166.8c-35.7,48.5-70.2,97.9-109.3,143.7c-7.4,8.7-18.5,20.5-11.6,32.7c17.1,31,33.4,62.5,50.4,93.5
	c19.5,31.4,35.7,64.6,52.6,97.4c-27.8-16.7-53.2-40.6-86.6-45c-15.6-1.9-33.4-6.6-47.5,3c-12.1,8.3-22.1,19.3-33.9,28
	c-17.8-21.4-40.2-38.4-64.6-51.6c-12.9-7.2-27.8-9.2-42.2-10.4c-17.8-2-33,9.6-49.3,14.6c20-60.7,53.6-115.9,75.3-176
	c5.9-35,10.1-70.3,12.7-105.7c-42.5,31.4-82.2,68.1-132,87.9c-13.7,6.9-30.2,10.6-40.5,22.4c-2.9,28.3,1.9,56.7,0,85
	c-0.8,23.7,1.7,47.5,0.4,71.2c-0.9,14.8,1.4,29.7,7.5,43.3c17.2,37.8,30.4,77.3,44.8,116.2c-25.6-14.8-45.9-37.2-71.9-51.3
	c-10.1,14.5-19.5,29.5-28,45.1c-3,5.9-7.9,10.4-13.1,14.4c-8.9-10.7-16.6-22.2-22.8-34.6c-4.2-7-7.7-18-17.9-16.5
	c-23.9,1-46.4,11-70.5,10.9c10.4-29.7,27.7-56.3,41.1-84.5c6.2-11.5,2.7-24.6,0.4-36.6c-8.4-41.3-15.8-82.7-22.7-124.3
	c-26.4-0.7-52.3,5.9-78.7,5.6c-40.4,4-81,2.2-121.5,1c-49.9-4.5-99.5-11.9-149.1-18.9c-8.9,37.4-11.9,75.9-17.8,113.8
	c-1.7,14.4-5.5,29.1-2.5,43.7c4.8,24.8,10.4,49.5,14.3,74.6c2.8,18.5,9,36.4,10.3,55.2c-23.5-17.3-36.8-45-61.1-61.2
	c-18.3,16.9-33.6,36.8-51.5,54.2c-9.2-19.1-16.1-39.2-23.8-58.8c-26.2-5.5-52.6,1.6-78.9-1.2c15.4-31,42.7-54.2,59-84.7
	c4.2-17,0.8-34.7,1.8-52.1c-1.2-40.6-0.5-81.1-2.1-121.7c-0.6-4.7,0.2-10.7-4.7-13.3c-21.2-14.6-46.2-23-66.9-38.5
	c-27-16.2-51.7-35.7-75.7-56.1c-15.2-13.3-26.7-30.6-43.5-42.1c-22.5,44.1-30.1,93.8-41.2,141.6c-2.9,32.1-15.5,63.4-11.8,96
	c5.7,42.5,13.3,84.6,18.7,127.1c2.7,17.4,6.3,34.8,5.7,52.5c-11.8-9.2-22.1-20.6-35.8-27.1c-24.4-7.1-50.9-7.2-74.7,2.3
	c-17,5.6-31.9,15.9-48.3,23.1c-8.7,4.4-11.4-7.3-15-12.6c-8.5-17.7-24.8-31.2-44.2-34.9c-35.9-9.3-70.7,6.5-104.9,15.2
	c21.1-30.7,51.7-53,77-80.1c22-24.5,47.2-45.9,69.6-70.1c8-6.9,1.5-17-1.3-24.8c-34.9-80.7-63.6-163.9-90.7-247.5
	C60.1,919,41.3,860,31.3,798.9c-7.1-40.1-11.2-80.7-15-121.2c-0.6-22.5-0.8-45.1-1.7-67.6c2.2-23.1,1-46.5,4.6-69.5
	c5.9-43.1,15.3-87,38.1-124.7c25-18,55.7-29.9,86.9-29.8c44.7-1.4,85.9,21.3,119,49.5c15.8,11.4,26.6,28.2,42.5,39.5
	c12.1-22.7,20.5-47.3,33.8-69.4c5.8-10.7,13.9-20.4,17.5-32.2c1.5-5.1-3-8.9-5.4-12.7c-32.5-39.9-45.4-94.5-36-145
	c2.6-37.6,21.7-71.8,44.8-100.8c29.9-34.5,72.3-57.4,117.6-63.3c22.4-4.2,45-0.6,67.2,2.7c38.4,5.2,73.5,26.1,99.9,53.9
	c5.1,6.1,13.2,10.3,21.1,7c16.9-6.8,33.7-14.1,51.6-18c113.6-32.8,235.8-32.2,349.9-2.5c13.1,4.1,25.9,10,39.8,10.9
	C1116.4,101.6,1121.6,92.4,1128.3,85.7 M907.3,110.6c1.2,5.1,2,10.4,4.5,15.1c12.7,9,29,9.7,44,10.2c12.5-0.3,29-1.6,34.1-15.4
	c-1.5-8.3-8.1-14.5-15.9-17.2C952,96.3,927.2,98.6,907.3,110.6 M1275.8,163.1c-12.3,2.6-23,10.1-32.1,18.6
	c-18.4,17.2-22.5,46.4-12.3,69c11.2,23.1,36.9,38.4,62.5,37.2c31.4-3.3,58.4-32.3,55.5-64.6C1351.5,185.1,1311.6,156.9,1275.8,163.1
	 M729.7,132.7c12.1,11.8,29.1,15.2,45.5,14.9c10.2,0.3,22.4-4.8,24.8-15.5c-6.4-13-22.4-12.8-34.7-14.1
	C751.9,116.7,736.8,120.2,729.7,132.7 M1003.7,158.3c2.3,6.2,2.7,15.3,10.7,16.9c19.5,7,46.5,11,60.3-8.6
	C1059.1,144,1025.6,147.7,1003.7,158.3 M845.4,164c-6.6,1.5-8.1,8.9-10.8,14c18.2,11.5,41.4,14.3,60.7,4c-1.5-6.1-1.8-15.1-9.8-16.3
	C872.5,162.9,858.5,160.3,845.4,164 M526.4,184.2c-38.9,0.6-66.1,44.3-54.7,80.2c6.9,33.3,45.9,50.8,77,41.5
	c27.1-5.8,44.3-34,44.7-60.4C593.6,211.1,560.8,181,526.4,184.2 M975.7,340.4c-23.2,1.7-18.9,42.9,4.2,39.4
	c16.7,2,22.7-18,18.3-30.9C994,341.1,983.6,340.1,975.7,340.4 M858.3,343.7c-9.1,2.4-15.5,11.6-15.1,20.9
	c-0.5,12.8,14.5,22.7,26.2,18c13.2-5.3,16.7-24.4,8.6-35.2C872.8,342.6,864.8,342.6,858.3,343.7 M1414.6,488.1
	c-19.9,12.2-42.8,17.8-63.8,27.4c-29.2,13-59.8,22.3-90.7,30.2c-55,17.3-111.7,27.9-168.4,37.5c-23.5,4.7-47.6,3.3-71.3,5.9
	c-35.8,3.6-71.8,4.3-107.8,4c-78.6,2.2-157.1-5.1-234.6-17.6c-29.8-6.1-60.2-8.4-89.9-14.7c-42.2-12-85.3-20.4-127.6-32
	c-37.7-12.1-75.5-24.2-113.8-34.4c36.1,22.9,73.3,44.1,110.8,64.8c45.2,26.8,92,51.1,140.6,71.3c25.9,11.3,53.3,18.4,79.3,29.2
	c67.4,25.8,139.5,36.3,211.1,42.5c51.1,3.5,102.1-2.6,152.7-9.6c21.9-0.8,43.1-6.8,63.6-13.9c74.1-21.8,145.6-53.2,210.5-95.2
	c54-35.8,108-73.6,151.5-122C1448.3,468.3,1431.3,478.1,1414.6,488.1L1414.6,488.1z"/>
<path class="st1" d="M907.3,110.6c19.9-12,44.7-14.3,66.7-7.2c7.8,2.6,14.4,8.8,15.9,17.2c-5.1,13.7-21.6,15.1-34.1,15.4
	c-15-0.5-31.3-1.3-44-10.2C909.3,121,908.5,115.7,907.3,110.6L907.3,110.6z"/>
<path class="st2" d="M1275.8,163.1c35.8-6.2,75.7,22.1,73.6,60.1c2.9,32.3-24.1,61.3-55.5,64.6c-25.6,1.2-51.3-14.1-62.5-37.2
	c-10.2-22.6-6.1-51.8,12.3-69C1252.8,173.2,1263.5,165.7,1275.8,163.1L1275.8,163.1z"/>
<path class="st1" d="M729.7,132.7c7.1-12.5,22.2-16,35.6-14.7c12.3,1.3,28.3,1.1,34.7,14.1c-2.5,10.8-14.7,15.9-24.8,15.5
	C758.8,147.9,741.8,144.5,729.7,132.7z"/>
<path class="st1" d="M1003.7,158.4c21.9-10.6,55.4-14.3,71,8.3c-13.8,19.6-40.7,15.6-60.3,8.6C1006.4,173.7,1006,164.5,1003.7,158.4
	L1003.7,158.4z"/>
<path class="st1" d="M845.5,164.1c13.1-3.8,27.1-1.1,40.1,1.7c7.9,1.2,8.3,10.2,9.8,16.3c-19.3,10.3-42.6,7.5-60.7-4
	C837.4,172.9,838.9,165.6,845.5,164.1L845.5,164.1z"/>
<path class="st2" d="M526.5,184.2c34.4-3.2,67.2,26.8,67,61.3c-0.5,26.4-17.6,54.6-44.7,60.4c-31.1,9.4-70.1-8.2-77-41.5
	C460.3,228.6,487.5,184.8,526.5,184.2L526.5,184.2z"/>
<path class="st2" d="M975.7,340.4c8-0.3,18.4,0.7,22.6,8.6c4.4,12.9-1.6,32.9-18.3,30.9C956.8,383.3,952.5,342.1,975.7,340.4z"/>
<path class="st2" d="M858.3,343.7c6.5-1.1,14.5-1.1,19.6,3.7c8.1,10.8,4.6,29.9-8.6,35.2c-11.7,4.7-26.7-5.2-26.2-18
	C842.8,355.3,849.3,346.1,858.3,343.7L858.3,343.7z"/>
<path class="st2" d="M1414.6,488.2c16.7-10.1,33.7-19.9,52.1-26.5c-43.5,48.5-97.5,86.2-151.5,122c-64.9,42-136.4,73.4-210.5,95.2
	c-20.6,7.2-41.7,13.1-63.6,13.9c-50.5,7-101.6,13.1-152.7,9.6c-71.6-6.2-143.6-16.8-211.1-42.5c-26-10.9-53.4-18-79.3-29.2
	c-48.5-20.2-95.3-44.5-140.6-71.3c-37.5-20.7-74.7-41.9-110.8-64.8c38.3,10.2,76,22.4,113.8,34.4c42.3,11.5,85.4,20,127.6,32
	c29.7,6.3,60.1,8.6,89.9,14.7c77.5,12.5,156,19.8,234.6,17.6c36,0.3,72-0.4,107.8-4c23.7-2.6,47.8-1.1,71.3-5.9
	c56.7-9.6,113.4-20.2,168.4-37.5c30.9-7.9,61.5-17.2,90.7-30.2C1371.8,505.9,1394.7,500.3,1414.6,488.2L1414.6,488.2z"/>
</svg>
