<?xml version="1.0" encoding="utf-8"?>
<!-- Generator: Adobe Illustrator 22.0.1, SVG Export Plug-In . SVG Version: 6.00 Build 0)  -->
<svg version="1.1" id="Layer_1" xmlns="http://www.w3.org/2000/svg" xmlns:xlink="http://www.w3.org/1999/xlink" x="0px" y="0px"
	 viewBox="0 0 378.7 181.4" style="enable-background:new 0 0 378.7 181.4;" xml:space="preserve">
<style type="text/css">
	.st0{fill:#5D3667;}
	.st1{fill:#AD7FA8;}
	.st2{fill:#5C3566;fill-opacity:0.98;}
	.st3{fill:#D3D7CF;fill-opacity:0.98;}
	.st4{fill:#555753;fill-opacity:0.98;}
	.st5{opacity:0.739;fill:#EEEEEC;fill-opacity:0.98;enable-background:new    ;}
	.st6{fill:#4D9A06;fill-opacity:0.98;}
	.st7{fill:url(#SVGID_1_);}
	.st8{fill:#4E9A06;}
	.st9{fill:#EEEEEC;fill-opacity:0.98;}
	.st10{fill:#2E3436;fill-opacity:0.98;}
	.st11{fill:#FFFFFF;}
	.st12{fill:url(#SVGID_2_);}
	.st13{fill:#4C9A06;fill-opacity:0.98;}
	.st14{fill:url(#SVGID_3_);}
	.st15{opacity:0.183;fill:#555753;fill-opacity:0.98;enable-background:new    ;}
	.st16{opacity:0.739;fill:url(#SVGID_4_);enable-background:new    ;}
	.st17{fill:none;stroke:#000000;}
	.st18{fill:#FF0000;}
	.st19{fill:#FF7F00;}
</style>
<g>
	<path class="st0" d="M273.2,143.7c0,20.2-37.2,36.5-83.1,36.5s-83.1-16.3-83.1-36.5c0-20.2,37.2-36.5,83.1-36.5
		S273.2,123.6,273.2,143.7z"/>
	<g>
		<path class="st1" d="M190.3,56.4C85.8,56.4,28.2,87,1.8,111.4c55.4,40,119.7,53.6,188.5,53c68.4,0.4,126.9-18.3,187.4-52.5
			C351.3,87.5,294.7,56.4,190.3,56.4z"/>
		<g>
			<path class="st2" d="M1.5,111.4c56.6,37.6,119.3,54.9,187.7,54.5c0,0,0,0,0,0c68.4,0.4,128.6-19.8,189.2-54
				c-47.4,10.6-127.5,40-183.8,36.9c-1.8,0-3.6,0-5.4,0c-1.8,0-3.6,0-5.4,0C127.5,152,48.9,122,1.5,111.4L1.5,111.4z"/>
			<path class="st3" d="M277.7,82.5c0,12.7-38.3,23-85.5,23s-85.5-10.3-85.5-23c0-12.7,38.3-23,85.5-23S277.7,69.8,277.7,82.5z"/>
			<path class="st4" d="M192.2,85.7c-29.9,0-54.2,6.5-54.4,14.6c14.8,3.3,33.7,5.2,54.4,5.2c20.7,0,39.6-1.9,54.4-5.2
				C246.4,92.2,222.1,85.7,192.2,85.7z"/>
			<path class="st5" d="M278,70.9c0,37.5-34.7,40.1-86.3,40.8c-56.4,0.7-87.5-5.9-84.7-40.8C110,33.7,145.3,3,192.5,3
				S278,33.4,278,70.9z"/>
		</g>
	</g>
</g>
<g>
	<g>
		<path class="st6" d="M192.7,58.8c-16.2,0-29.3,13.4-29.3,29.9c0,5.5,1.5,10.7,4.1,15.2c8.6,0.8,17.7,1.2,27.3,1.2
			c8,0,15.7-0.3,23.1-0.9c2.7-4.5,4.2-9.8,4.2-15.5C222,72.2,208.9,58.8,192.7,58.8L192.7,58.8z"/>
		
			<radialGradient id="SVGID_1_" cx="-70.827" cy="-298.0945" r="19.269" gradientTransform="matrix(1 0 0 -0.6055 0 356.0855)" gradientUnits="userSpaceOnUse">
			<stop  offset="0" style="stop-color:#555753"/>
			<stop  offset="1" style="stop-color:#555753;stop-opacity:0"/>
		</radialGradient>
		<path class="st7" d="M206.9,72.8c0,5.1-6.8,9.2-15.2,9.2c-8.4,0-15.2-4.1-15.2-9.2c0-5.1,6.8-9.2,15.2-9.2
			C200.1,63.5,207,67.7,206.9,72.8z"/>
	</g>
	<g>
		<path class="st8" d="M159,16.7c-2.4,0-4.3,2.2-4.3,4.8s1.9,4.8,4.3,4.8s4.4-2.1,4.4-4.8c0-0.1,0-0.3,0-0.4c2-0.4,4.7-0.7,7.3-0.1
			c2.6,0.6,5.1,2,7.2,5.1c1.8,2.6,3.2,6.6,3.7,12.3c-4.5,3.7-7.5,9.7-7.5,16.4c0,11.2,8.2,20.3,18.4,20.3s18.3-9.1,18.3-20.3
			c0-7.7-3.9-14.4-9.6-17.9c1.7-5.6,3.9-9.3,6.2-11.5c2.7-2.6,5.4-3.5,8.1-3.6c2.7-0.1,5.3,0.8,7.1,1.6c0,0.1-0.1,0.3-0.1,0.4
			c-0.5,2.6,1,5.1,3.3,5.6c2.4,0.5,4.7-1.2,5.2-3.9c0.5-2.6-1-5.1-3.3-5.6c-1.2-0.2-2.4,0.1-3.3,0.8c-1.2-0.6-2.7-1.1-4.4-1.5
			c-1.4-0.3-3-0.6-4.7-0.5c-3.3,0.1-7,1.3-10.3,4.5c-2.7,2.7-5,6.6-6.8,12.4c-1.8-0.7-3.8-1.1-5.9-1.1c-2.8,0-5.5,0.7-7.9,2
			c-0.7-5.2-2.1-9.1-4-12c-2.5-3.8-5.9-5.7-9.2-6.5c-1.6-0.4-3.2-0.5-4.7-0.4c-1.7,0.1-3.3,0.3-4.6,0.6
			C161.3,17.2,160.2,16.7,159,16.7L159,16.7z"/>
		<g>
			<path class="st9" d="M200.3,48.6c0,5-3.7,9.1-8.2,9.1s-8.2-4.1-8.2-9.1s3.7-9.1,8.2-9.1S200.3,43.6,200.3,48.6z"/>
			<path class="st10" d="M195.3,51.3c0,2.7-1.7,4.9-3.7,4.9s-3.7-2.2-3.7-4.9s1.7-4.9,3.7-4.9C193.6,46.3,195.3,48.5,195.3,51.3z"/>
		</g>
	</g>
	<g>
		<path class="st11" d="M197.4,45.6c0,2.8-0.4-3.2-5.4-1.8c-2.8,0.8-5.4,4.6-5.4,1.8c0-2.8,2.4-5.1,5.4-5.1
			C195,40.5,197.4,42.8,197.4,45.6z"/>
		
			<radialGradient id="SVGID_2_" cx="-81.337" cy="-298.0945" r="19.269" gradientTransform="matrix(1 0 0 -0.6055 0 356.0855)" gradientUnits="userSpaceOnUse">
			<stop  offset="0" style="stop-color:#555753"/>
			<stop  offset="1" style="stop-color:#555753;stop-opacity:0"/>
		</radialGradient>
		<path class="st12" d="M180.1,79.5c0,3.6-3.4,6.5-7.7,6.5c-4.2,0-7.7-2.9-7.7-6.5c0-3.6,3.4-6.5,7.7-6.5
			C176.7,73,180.1,75.9,180.1,79.5z"/>
	</g>
</g>
<path class="st13" d="M173.4,80.2c9.7-2.6-8.3-24.9-18.4-17.7c-3,23.4-10.5,22.4-29.8,27.6c9.4,1.1,21,3.6,28.3-4
	C160.8,66.3,163.5,79.7,173.4,80.2z"/>
<radialGradient id="SVGID_3_" cx="-81.337" cy="-298.0945" r="19.269" gradientTransform="matrix(1 0 0 -0.6055 0 356.0855)" gradientUnits="userSpaceOnUse">
	<stop  offset="0" style="stop-color:#555753"/>
	<stop  offset="1" style="stop-color:#555753;stop-opacity:0"/>
</radialGradient>
<path class="st14" d="M205.7,78.1c0,3.6,3.4,6.5,7.7,6.5c4.2,0,7.7-2.9,7.7-6.5c0-3.6-3.4-6.5-7.7-6.5
	C209.1,71.6,205.7,74.5,205.7,78.1z"/>
<path class="st13" d="M212.4,78.8c-9.7-2.6,8.3-24.9,18.4-17.7c3,23.4,10.5,22.4,29.8,27.6c-9.4,1.1-21,3.6-28.3-4
	C224.9,64.9,222.3,78.3,212.4,78.8L212.4,78.8z"/>
<path class="st15" d="M165.4,96.3c0.7,2.3,1.6,4.5,2.8,6.5c8.6,0.8,17.7,1.2,27.3,1.2c8,0,15.7-0.3,23.1-0.9c1.2-2,2.1-4.2,2.8-6.5
	c-0.9,0-1.8-0.1-2.8-0.2c0,0.1-0.1,0.1-0.1,0.2c-7.3,0.6-15.1,0.9-23.1,0.9c-9.5,0-18.7-0.4-27.3-1.2c-0.5,0-0.9,0.1-1.4,0.1
	C166.3,96.3,165.9,96.3,165.4,96.3L165.4,96.3z"/>
<linearGradient id="SVGID_4_" gradientUnits="userSpaceOnUse" x1="111.5898" y1="141.7765" x2="111.689" y2="141.1691" gradientTransform="matrix(143.7567 0 0 -65.8598 -15868.3301 9347.2314)">
	<stop  offset="0" style="stop-color:#FFFFFF"/>
	<stop  offset="1" style="stop-color:#FFFFFF;stop-opacity:0"/>
</linearGradient>
<path class="st16" d="M263.2,62.1c0,31.5-18-33.4-71.7-16.2c-62.2,20-73.1,31.2-72,16.2C121.8,30.8,151.7,5,191.3,5
	S263.2,30.6,263.2,62.1L263.2,62.1z"/>
<path class="st17" d="M123.5,156"/>
<path class="st18" d="M201.2,131.8c0,3.9-7.8,7-17.5,7s-17.5-3.1-17.5-7s7.8-7,17.5-7S201.2,127.9,201.2,131.8z"/>
<g>
	<path class="st19" d="M81.6,114.8c-0.9,3.3-8.3,4.2-16.5,2c-8.2-2.2-14.2-6.6-13.4-9.9c0.9-3.3,8.3-4.2,16.5-2
		C76.5,107.1,82.5,111.5,81.6,114.8L81.6,114.8z"/>
	<path class="st19" d="M307.7,116.2c0.9,3.3,8.3,4.2,16.5,2c8.2-2.2,14.2-6.6,13.4-9.9c-0.9-3.3-8.3-4.2-16.5-2
		C312.8,108.5,306.8,112.9,307.7,116.2z"/>
</g>
</svg>
