<?xml version="1.0" encoding="utf-8"?>
<!-- Generator: Adobe Illustrator 22.0.1, SVG Export Plug-In . SVG Version: 6.00 Build 0)  -->
<svg version="1.1" id="Layer_1" xmlns="http://www.w3.org/2000/svg" xmlns:xlink="http://www.w3.org/1999/xlink" x="0px" y="0px"
	 viewBox="0 0 82.2 78.5" style="enable-background:new 0 0 82.2 78.5;" xml:space="preserve">
<style type="text/css">
	.st0{fill:#F3F3F7;}
	.st1{fill:#B9C4D4;stroke:#000000;stroke-width:3;stroke-miterlimit:10;}
	.st2{font-family:'Arial-BoldMT';}
	.st3{font-size:9px;}
</style>
<path class="st0" d="M66.4,73h-52c-6.6,0-12-5.4-12-12V14c0-6.6,5.4-12,12-12h52c6.6,0,12,5.4,12,12v47C78.4,67.6,73,73,66.4,73z"/>
<path class="st1" d="M61.4,49h-42c-6.6,0-12-5.4-12-12V20c0-6.6,5.4-12,12-12h42c6.6,0,12,5.4,12,12v17C73.4,43.6,68,49,61.4,49z"/>
<g>
	<g>
		<path d="M17.4,56.1c15.7,0,31.3,0,47,0c1.4,0,1.5-2.2,0-2.2c-15.7,0-31.3,0-47,0C16,53.9,16,56.1,17.4,56.1L17.4,56.1z"/>
	</g>
</g>
<g>
	<path d="M32.9,28.5c0-5,0-10,0-10l18,10l-18,10C32.9,38.5,32.9,33.5,32.9,28.5z"/>
	<g>
		<path d="M34.4,28.5c0-3.3,0-6.7,0-10c-0.8,0.4-1.5,0.9-2.3,1.3c6,3.3,12,6.7,18,10c0-0.9,0-1.7,0-2.6c-6,3.3-12,6.7-18,10
			c0.8,0.4,1.5,0.9,2.3,1.3C34.4,35.2,34.4,31.8,34.4,28.5c0-1.9-3-1.9-3,0c0,3.3,0,6.7,0,10c0,1.2,1.3,1.8,2.3,1.3
			c6-3.3,12-6.7,18-10c1-0.5,1-2,0-2.6c-6-3.3-12-6.7-18-10c-1-0.5-2.3,0.1-2.3,1.3c0,3.3,0,6.7,0,10C31.4,30.4,34.4,30.4,34.4,28.5
			z"/>
	</g>
</g>
<text transform="matrix(1 0 0 1 13.4101 67.7592)" class="st2 st3">SLIDESHOW</text>
</svg>
